<mxfile host="app.diagrams.net" agent="Mozilla/5.0 (Windows NT 10.0; Win64; x64) AppleWebKit/537.36 (KHTML, like Gecko) Chrome/129.0.0.0 Safari/537.36" version="24.7.17">
  <diagram name="Page-1" id="smSO65hF2Sqz_nnlr_ul">
    <mxGraphModel dx="2790" dy="2148" grid="1" gridSize="10" guides="1" tooltips="1" connect="1" arrows="1" fold="1" page="1" pageScale="1" pageWidth="850" pageHeight="1100" math="0" shadow="0">
      <root>
        <mxCell id="0" />
        <mxCell id="1" parent="0" />
        <mxCell id="8WxmeXJwVNpy9xaw_TIM-440" style="edgeStyle=orthogonalEdgeStyle;shape=connector;rounded=0;orthogonalLoop=1;jettySize=auto;html=1;strokeColor=default;align=center;verticalAlign=middle;fontFamily=Helvetica;fontSize=11;fontColor=default;labelBackgroundColor=default;endArrow=circle;endFill=0;" parent="1" source="8WxmeXJwVNpy9xaw_TIM-421" edge="1">
          <mxGeometry relative="1" as="geometry">
            <mxPoint x="2020" y="560" as="targetPoint" />
            <Array as="points">
              <mxPoint x="2155" y="560" />
              <mxPoint x="2120" y="561" />
            </Array>
          </mxGeometry>
        </mxCell>
        <mxCell id="8WxmeXJwVNpy9xaw_TIM-421" value="src" style="shape=folder;fontStyle=1;tabWidth=110;tabHeight=30;tabPosition=left;html=1;boundedLbl=1;labelInHeader=1;container=1;collapsible=0;whiteSpace=wrap;fontFamily=Helvetica;fontSize=11;fontColor=default;labelBackgroundColor=default;" parent="1" vertex="1">
          <mxGeometry x="1820" y="100" width="2290" height="1260.07" as="geometry" />
        </mxCell>
        <mxCell id="8WxmeXJwVNpy9xaw_TIM-422" value="&lt;div&gt;&lt;br&gt;&lt;/div&gt;" style="html=1;strokeColor=none;resizeWidth=1;resizeHeight=1;fillColor=none;part=1;connectable=0;allowArrows=0;deletable=0;whiteSpace=wrap;fontFamily=Helvetica;fontSize=11;fontColor=default;labelBackgroundColor=default;" parent="8WxmeXJwVNpy9xaw_TIM-421" vertex="1">
          <mxGeometry width="2174.449541284404" height="1140" relative="1" as="geometry">
            <mxPoint y="30" as="offset" />
          </mxGeometry>
        </mxCell>
        <mxCell id="tiNQSC6HaKzDwvJY5_fg-1" value="&lt;div&gt;«Container»&lt;/div&gt;&lt;div&gt;mis citas&lt;/div&gt;" style="html=1;dropTarget=0;whiteSpace=wrap;" parent="8WxmeXJwVNpy9xaw_TIM-421" vertex="1">
          <mxGeometry x="1722.2145774896373" y="249.9983294048241" width="177.9243606075454" height="94.90719577223388" as="geometry" />
        </mxCell>
        <mxCell id="tiNQSC6HaKzDwvJY5_fg-2" value="" style="shape=module;jettyWidth=8;jettyHeight=4;" parent="tiNQSC6HaKzDwvJY5_fg-1" vertex="1">
          <mxGeometry x="1" width="20" height="20" relative="1" as="geometry">
            <mxPoint x="-27" y="7" as="offset" />
          </mxGeometry>
        </mxCell>
        <mxCell id="tiNQSC6HaKzDwvJY5_fg-3" value="&lt;div&gt;«Container»&lt;/div&gt;&lt;div&gt;agendar cita&lt;/div&gt;" style="html=1;dropTarget=0;whiteSpace=wrap;" parent="8WxmeXJwVNpy9xaw_TIM-421" vertex="1">
          <mxGeometry x="1922.339083488226" y="249.99832940482406" width="177.9243606075454" height="94.90719577223388" as="geometry" />
        </mxCell>
        <mxCell id="tiNQSC6HaKzDwvJY5_fg-4" value="" style="shape=module;jettyWidth=8;jettyHeight=4;" parent="tiNQSC6HaKzDwvJY5_fg-3" vertex="1">
          <mxGeometry x="1" width="20" height="20" relative="1" as="geometry">
            <mxPoint x="-27" y="7" as="offset" />
          </mxGeometry>
        </mxCell>
        <mxCell id="tiNQSC6HaKzDwvJY5_fg-5" value="" style="group" parent="8WxmeXJwVNpy9xaw_TIM-421" connectable="0" vertex="1">
          <mxGeometry x="1722.2102066588266" y="399.9984680197114" width="171.4380842724155" height="94.90719577223388" as="geometry" />
        </mxCell>
        <mxCell id="tiNQSC6HaKzDwvJY5_fg-6" value="&lt;div&gt;«Artifact»&lt;/div&gt;&lt;b&gt;page.tsx&lt;/b&gt;" style="html=1;dropTarget=0;whiteSpace=wrap;" parent="tiNQSC6HaKzDwvJY5_fg-5" vertex="1">
          <mxGeometry width="171.4380842724155" height="94.90719577223388" as="geometry" />
        </mxCell>
        <mxCell id="tiNQSC6HaKzDwvJY5_fg-7" value="" style="shape=note;whiteSpace=wrap;html=1;backgroundOutline=1;darkOpacity=0.05;size=4;" parent="tiNQSC6HaKzDwvJY5_fg-5" vertex="1">
          <mxGeometry x="152.3894082421471" y="10.54524397469265" width="12.381639419674455" height="21.0904879493853" as="geometry" />
        </mxCell>
        <mxCell id="tiNQSC6HaKzDwvJY5_fg-8" value="" style="group" parent="8WxmeXJwVNpy9xaw_TIM-421" connectable="0" vertex="1">
          <mxGeometry x="1922.3385508719532" y="399.9984680197114" width="171.4380842724155" height="94.90719577223388" as="geometry" />
        </mxCell>
        <mxCell id="tiNQSC6HaKzDwvJY5_fg-9" value="&lt;div&gt;«Artifact»&lt;/div&gt;&lt;b&gt;page.php&lt;/b&gt;" style="html=1;dropTarget=0;whiteSpace=wrap;" parent="tiNQSC6HaKzDwvJY5_fg-8" vertex="1">
          <mxGeometry width="171.4380842724155" height="94.90719577223388" as="geometry" />
        </mxCell>
        <mxCell id="tiNQSC6HaKzDwvJY5_fg-10" value="" style="shape=note;whiteSpace=wrap;html=1;backgroundOutline=1;darkOpacity=0.05;size=4;" parent="tiNQSC6HaKzDwvJY5_fg-8" vertex="1">
          <mxGeometry x="152.3894082421471" y="10.54524397469265" width="12.381639419674455" height="21.0904879493853" as="geometry" />
        </mxCell>
        <mxCell id="tiNQSC6HaKzDwvJY5_fg-11" style="edgeStyle=orthogonalEdgeStyle;shape=connector;rounded=0;orthogonalLoop=1;jettySize=auto;html=1;entryX=0.521;entryY=0.008;entryDx=0;entryDy=0;strokeColor=default;align=center;verticalAlign=middle;fontFamily=Helvetica;fontSize=11;fontColor=default;labelBackgroundColor=default;endArrow=none;endFill=0;entryPerimeter=0;" parent="8WxmeXJwVNpy9xaw_TIM-421" target="tiNQSC6HaKzDwvJY5_fg-6" edge="1">
          <mxGeometry relative="1" as="geometry">
            <mxPoint x="1811.1273853211012" y="344.91" as="sourcePoint" />
            <mxPoint x="1811.0591055045875" y="394.90864813559324" as="targetPoint" />
            <Array as="points">
              <mxPoint x="1810.9908256880738" y="387" />
              <mxPoint x="1812.04128440367" y="387" />
            </Array>
          </mxGeometry>
        </mxCell>
        <mxCell id="tiNQSC6HaKzDwvJY5_fg-12" style="edgeStyle=orthogonalEdgeStyle;shape=connector;rounded=0;orthogonalLoop=1;jettySize=auto;html=1;entryX=0.53;entryY=-0.011;entryDx=0;entryDy=0;strokeColor=default;align=center;verticalAlign=middle;fontFamily=Helvetica;fontSize=11;fontColor=default;labelBackgroundColor=default;endArrow=none;endFill=0;entryPerimeter=0;" parent="8WxmeXJwVNpy9xaw_TIM-421" target="tiNQSC6HaKzDwvJY5_fg-9" edge="1">
          <mxGeometry relative="1" as="geometry">
            <mxPoint x="2011.1984593330985" y="344.90314406779663" as="sourcePoint" />
            <mxPoint x="2011.1984593330985" y="405.7709322033898" as="targetPoint" />
            <Array as="points">
              <mxPoint x="2011.6284403669729" y="399" />
            </Array>
          </mxGeometry>
        </mxCell>
        <mxCell id="8WxmeXJwVNpy9xaw_TIM-244" value="" style="group" parent="8WxmeXJwVNpy9xaw_TIM-421" connectable="0" vertex="1">
          <mxGeometry x="329.9969380818229" y="839.9978839021135" width="171.4380842724155" height="86.18929193201296" as="geometry" />
        </mxCell>
        <mxCell id="8WxmeXJwVNpy9xaw_TIM-245" value="&lt;div&gt;«Artifact»&lt;/div&gt;&lt;div&gt;&lt;b&gt;menu-list.blade.php&lt;/b&gt;&lt;br&gt;&lt;/div&gt;" style="html=1;dropTarget=0;whiteSpace=wrap;" parent="8WxmeXJwVNpy9xaw_TIM-244" vertex="1">
          <mxGeometry width="171.4380842724155" height="86.18929193201296" as="geometry" />
        </mxCell>
        <mxCell id="8WxmeXJwVNpy9xaw_TIM-246" value="" style="shape=note;whiteSpace=wrap;html=1;backgroundOutline=1;darkOpacity=0.05;size=4;" parent="8WxmeXJwVNpy9xaw_TIM-244" vertex="1">
          <mxGeometry x="152.3894082421471" y="9.576587992445882" width="12.381639419674455" height="19.153175984891764" as="geometry" />
        </mxCell>
        <mxCell id="8WxmeXJwVNpy9xaw_TIM-241" value="" style="group" parent="8WxmeXJwVNpy9xaw_TIM-421" connectable="0" vertex="1">
          <mxGeometry x="69.99590304997596" y="839.9978839021135" width="171.4380842724155" height="86.18929193201296" as="geometry" />
        </mxCell>
        <mxCell id="8WxmeXJwVNpy9xaw_TIM-242" value="&lt;div&gt;«Artifact»&lt;/div&gt;&lt;div&gt;&lt;b&gt;utils.blade.php&lt;/b&gt;&lt;/div&gt;" style="html=1;dropTarget=0;whiteSpace=wrap;" parent="8WxmeXJwVNpy9xaw_TIM-241" vertex="1">
          <mxGeometry width="171.4380842724155" height="86.18929193201296" as="geometry" />
        </mxCell>
        <mxCell id="8WxmeXJwVNpy9xaw_TIM-243" value="" style="shape=note;whiteSpace=wrap;html=1;backgroundOutline=1;darkOpacity=0.05;size=4;" parent="8WxmeXJwVNpy9xaw_TIM-241" vertex="1">
          <mxGeometry x="152.3894082421471" y="9.576587992445882" width="12.381639419674455" height="19.153175984891764" as="geometry" />
        </mxCell>
        <mxCell id="8WxmeXJwVNpy9xaw_TIM-232" value="«Container»&lt;br&gt;&lt;b&gt;lib&lt;/b&gt;" style="html=1;dropTarget=0;whiteSpace=wrap;" parent="8WxmeXJwVNpy9xaw_TIM-421" vertex="1">
          <mxGeometry x="200.00019751347347" y="650.0027379956199" width="158.47871509064188" height="94.43265979337271" as="geometry" />
        </mxCell>
        <mxCell id="8WxmeXJwVNpy9xaw_TIM-233" value="" style="shape=module;jettyWidth=8;jettyHeight=4;" parent="8WxmeXJwVNpy9xaw_TIM-232" vertex="1">
          <mxGeometry x="1" width="20" height="20" relative="1" as="geometry">
            <mxPoint x="-27" y="7" as="offset" />
          </mxGeometry>
        </mxCell>
        <mxCell id="8WxmeXJwVNpy9xaw_TIM-337" style="edgeStyle=orthogonalEdgeStyle;shape=connector;rounded=0;orthogonalLoop=1;jettySize=auto;html=1;entryX=0.5;entryY=0;entryDx=0;entryDy=0;strokeColor=default;align=center;verticalAlign=middle;fontFamily=Helvetica;fontSize=11;fontColor=default;labelBackgroundColor=default;endArrow=none;endFill=0;" parent="8WxmeXJwVNpy9xaw_TIM-421" source="8WxmeXJwVNpy9xaw_TIM-232" target="8WxmeXJwVNpy9xaw_TIM-245" edge="1">
          <mxGeometry relative="1" as="geometry" />
        </mxCell>
        <mxCell id="8WxmeXJwVNpy9xaw_TIM-336" style="edgeStyle=orthogonalEdgeStyle;shape=connector;rounded=0;orthogonalLoop=1;jettySize=auto;html=1;entryX=0.5;entryY=0;entryDx=0;entryDy=0;strokeColor=default;align=center;verticalAlign=middle;fontFamily=Helvetica;fontSize=11;fontColor=default;labelBackgroundColor=default;endArrow=none;endFill=0;" parent="8WxmeXJwVNpy9xaw_TIM-421" source="8WxmeXJwVNpy9xaw_TIM-232" target="8WxmeXJwVNpy9xaw_TIM-242" edge="1">
          <mxGeometry relative="1" as="geometry" />
        </mxCell>
        <mxCell id="8WxmeXJwVNpy9xaw_TIM-412" value="Controlador de clases y listas de menu" style="text;html=1;align=center;verticalAlign=middle;resizable=0;points=[];autosize=1;strokeColor=none;fillColor=none;fontFamily=Helvetica;fontSize=11;fontColor=default;labelBackgroundColor=default;" parent="8WxmeXJwVNpy9xaw_TIM-421" vertex="1">
          <mxGeometry x="451.6972477064221" y="640" width="210" height="30" as="geometry" />
        </mxCell>
        <mxCell id="8WxmeXJwVNpy9xaw_TIM-236" value="«Container»&lt;br&gt;&lt;b&gt;Components&lt;/b&gt;" style="html=1;dropTarget=0;whiteSpace=wrap;" parent="8WxmeXJwVNpy9xaw_TIM-421" vertex="1">
          <mxGeometry x="1197.5188768209707" y="750.00158511538" width="169.81300765499915" height="88.87640449438203" as="geometry" />
        </mxCell>
        <mxCell id="8WxmeXJwVNpy9xaw_TIM-237" value="" style="shape=module;jettyWidth=8;jettyHeight=4;" parent="8WxmeXJwVNpy9xaw_TIM-236" vertex="1">
          <mxGeometry x="1" width="20" height="20" relative="1" as="geometry">
            <mxPoint x="-27" y="7" as="offset" />
          </mxGeometry>
        </mxCell>
        <mxCell id="8WxmeXJwVNpy9xaw_TIM-297" value="«Container»&lt;br&gt;PaymentPage" style="html=1;dropTarget=0;whiteSpace=wrap;" parent="8WxmeXJwVNpy9xaw_TIM-421" vertex="1">
          <mxGeometry x="630.2711703989523" y="890.00158511538" width="169.81300765499915" height="88.87640449438203" as="geometry" />
        </mxCell>
        <mxCell id="8WxmeXJwVNpy9xaw_TIM-298" value="" style="shape=module;jettyWidth=8;jettyHeight=4;" parent="8WxmeXJwVNpy9xaw_TIM-297" vertex="1">
          <mxGeometry x="1" width="20" height="20" relative="1" as="geometry">
            <mxPoint x="-27" y="7" as="offset" />
          </mxGeometry>
        </mxCell>
        <mxCell id="8WxmeXJwVNpy9xaw_TIM-339" style="edgeStyle=orthogonalEdgeStyle;shape=connector;rounded=0;orthogonalLoop=1;jettySize=auto;html=1;entryX=0.5;entryY=0;entryDx=0;entryDy=0;strokeColor=default;align=center;verticalAlign=middle;fontFamily=Helvetica;fontSize=11;fontColor=default;labelBackgroundColor=default;endArrow=none;endFill=0;" parent="8WxmeXJwVNpy9xaw_TIM-421" source="8WxmeXJwVNpy9xaw_TIM-236" target="8WxmeXJwVNpy9xaw_TIM-297" edge="1">
          <mxGeometry relative="1" as="geometry">
            <Array as="points">
              <mxPoint x="714.9268292682927" y="794" />
            </Array>
          </mxGeometry>
        </mxCell>
        <mxCell id="8WxmeXJwVNpy9xaw_TIM-372" value="" style="group" parent="8WxmeXJwVNpy9xaw_TIM-421" connectable="0" vertex="1">
          <mxGeometry x="630.2734897446388" y="1030.0013483146067" width="163.57395196634138" height="88.87640449438203" as="geometry" />
        </mxCell>
        <mxCell id="8WxmeXJwVNpy9xaw_TIM-373" value="&lt;div&gt;«Artifact»&lt;/div&gt;&lt;b&gt;*.blade.php&lt;/b&gt;" style="html=1;dropTarget=0;whiteSpace=wrap;" parent="8WxmeXJwVNpy9xaw_TIM-372" vertex="1">
          <mxGeometry x="2.1009174311926606" width="163.57395196634138" height="88.87640449438203" as="geometry" />
        </mxCell>
        <mxCell id="8WxmeXJwVNpy9xaw_TIM-374" value="" style="shape=note;whiteSpace=wrap;html=1;backgroundOutline=1;darkOpacity=0.05;size=4;" parent="8WxmeXJwVNpy9xaw_TIM-372" vertex="1">
          <mxGeometry x="145.3990684145257" y="9.875156054931335" width="11.813674308680215" height="19.75031210986267" as="geometry" />
        </mxCell>
        <mxCell id="8WxmeXJwVNpy9xaw_TIM-375" style="edgeStyle=orthogonalEdgeStyle;shape=connector;rounded=0;orthogonalLoop=1;jettySize=auto;html=1;strokeColor=default;align=center;verticalAlign=middle;fontFamily=Helvetica;fontSize=11;fontColor=default;labelBackgroundColor=default;endArrow=none;endFill=0;" parent="8WxmeXJwVNpy9xaw_TIM-421" source="8WxmeXJwVNpy9xaw_TIM-297" target="8WxmeXJwVNpy9xaw_TIM-373" edge="1">
          <mxGeometry relative="1" as="geometry" />
        </mxCell>
        <mxCell id="8WxmeXJwVNpy9xaw_TIM-376" value="" style="group" parent="8WxmeXJwVNpy9xaw_TIM-421" connectable="0" vertex="1">
          <mxGeometry x="829.8606457079417" y="1030.0013483146067" width="163.57395196634138" height="88.87640449438203" as="geometry" />
        </mxCell>
        <mxCell id="8WxmeXJwVNpy9xaw_TIM-377" value="&lt;div&gt;«Artifact»&lt;/div&gt;&lt;b&gt;*.php&lt;/b&gt;" style="html=1;dropTarget=0;whiteSpace=wrap;" parent="8WxmeXJwVNpy9xaw_TIM-376" vertex="1">
          <mxGeometry x="2.1009174311926606" width="163.57395196634138" height="88.87640449438203" as="geometry" />
        </mxCell>
        <mxCell id="8WxmeXJwVNpy9xaw_TIM-378" value="" style="shape=note;whiteSpace=wrap;html=1;backgroundOutline=1;darkOpacity=0.05;size=4;" parent="8WxmeXJwVNpy9xaw_TIM-376" vertex="1">
          <mxGeometry x="145.3990684145257" y="9.875156054931335" width="11.813674308680215" height="19.75031210986267" as="geometry" />
        </mxCell>
        <mxCell id="8WxmeXJwVNpy9xaw_TIM-299" value="«Container»&lt;br&gt;&lt;b&gt;auth&lt;/b&gt;" style="html=1;dropTarget=0;whiteSpace=wrap;" parent="8WxmeXJwVNpy9xaw_TIM-421" vertex="1">
          <mxGeometry x="829.8583263622556" y="890.00158511538" width="169.81300765499915" height="88.87640449438203" as="geometry" />
        </mxCell>
        <mxCell id="8WxmeXJwVNpy9xaw_TIM-300" value="" style="shape=module;jettyWidth=8;jettyHeight=4;" parent="8WxmeXJwVNpy9xaw_TIM-299" vertex="1">
          <mxGeometry x="1" width="20" height="20" relative="1" as="geometry">
            <mxPoint x="-27" y="7" as="offset" />
          </mxGeometry>
        </mxCell>
        <mxCell id="8WxmeXJwVNpy9xaw_TIM-340" style="edgeStyle=orthogonalEdgeStyle;shape=connector;rounded=0;orthogonalLoop=1;jettySize=auto;html=1;entryX=0.5;entryY=0;entryDx=0;entryDy=0;strokeColor=default;align=center;verticalAlign=middle;fontFamily=Helvetica;fontSize=11;fontColor=default;labelBackgroundColor=default;endArrow=none;endFill=0;" parent="8WxmeXJwVNpy9xaw_TIM-421" source="8WxmeXJwVNpy9xaw_TIM-236" target="8WxmeXJwVNpy9xaw_TIM-299" edge="1">
          <mxGeometry relative="1" as="geometry" />
        </mxCell>
        <mxCell id="8WxmeXJwVNpy9xaw_TIM-386" style="edgeStyle=orthogonalEdgeStyle;shape=connector;rounded=0;orthogonalLoop=1;jettySize=auto;html=1;entryX=0.5;entryY=0;entryDx=0;entryDy=0;strokeColor=default;align=center;verticalAlign=middle;fontFamily=Helvetica;fontSize=11;fontColor=default;labelBackgroundColor=default;endArrow=none;endFill=0;" parent="8WxmeXJwVNpy9xaw_TIM-421" source="8WxmeXJwVNpy9xaw_TIM-299" target="8WxmeXJwVNpy9xaw_TIM-377" edge="1">
          <mxGeometry relative="1" as="geometry" />
        </mxCell>
        <mxCell id="8WxmeXJwVNpy9xaw_TIM-301" value="«Container»&lt;br&gt;RegisterPage" style="html=1;dropTarget=0;whiteSpace=wrap;" parent="8WxmeXJwVNpy9xaw_TIM-421" vertex="1">
          <mxGeometry x="1018.9408951695946" y="890.00158511538" width="169.81300765499915" height="88.87640449438203" as="geometry" />
        </mxCell>
        <mxCell id="8WxmeXJwVNpy9xaw_TIM-302" value="" style="shape=module;jettyWidth=8;jettyHeight=4;" parent="8WxmeXJwVNpy9xaw_TIM-301" vertex="1">
          <mxGeometry x="1" width="20" height="20" relative="1" as="geometry">
            <mxPoint x="-27" y="7" as="offset" />
          </mxGeometry>
        </mxCell>
        <mxCell id="8WxmeXJwVNpy9xaw_TIM-341" style="edgeStyle=orthogonalEdgeStyle;shape=connector;rounded=0;orthogonalLoop=1;jettySize=auto;html=1;entryX=0.5;entryY=0;entryDx=0;entryDy=0;strokeColor=default;align=center;verticalAlign=middle;fontFamily=Helvetica;fontSize=11;fontColor=default;labelBackgroundColor=default;endArrow=none;endFill=0;" parent="8WxmeXJwVNpy9xaw_TIM-421" source="8WxmeXJwVNpy9xaw_TIM-236" target="8WxmeXJwVNpy9xaw_TIM-301" edge="1">
          <mxGeometry relative="1" as="geometry" />
        </mxCell>
        <mxCell id="8WxmeXJwVNpy9xaw_TIM-379" value="" style="group" parent="8WxmeXJwVNpy9xaw_TIM-421" connectable="0" vertex="1">
          <mxGeometry x="1022.0630769006019" y="1030.0013483146067" width="163.57395196634138" height="88.87640449438203" as="geometry" />
        </mxCell>
        <mxCell id="8WxmeXJwVNpy9xaw_TIM-380" value="&lt;div&gt;«Artifact»&lt;/div&gt;&lt;b&gt;*.blade.php&lt;/b&gt;" style="html=1;dropTarget=0;whiteSpace=wrap;" parent="8WxmeXJwVNpy9xaw_TIM-379" vertex="1">
          <mxGeometry x="2.1009174311926606" width="163.57395196634138" height="88.87640449438203" as="geometry" />
        </mxCell>
        <mxCell id="8WxmeXJwVNpy9xaw_TIM-381" value="" style="shape=note;whiteSpace=wrap;html=1;backgroundOutline=1;darkOpacity=0.05;size=4;" parent="8WxmeXJwVNpy9xaw_TIM-379" vertex="1">
          <mxGeometry x="145.3990684145257" y="9.875156054931335" width="11.813674308680215" height="19.75031210986267" as="geometry" />
        </mxCell>
        <mxCell id="8WxmeXJwVNpy9xaw_TIM-387" style="edgeStyle=orthogonalEdgeStyle;shape=connector;rounded=0;orthogonalLoop=1;jettySize=auto;html=1;entryX=0.5;entryY=0;entryDx=0;entryDy=0;strokeColor=default;align=center;verticalAlign=middle;fontFamily=Helvetica;fontSize=11;fontColor=default;labelBackgroundColor=default;endArrow=none;endFill=0;" parent="8WxmeXJwVNpy9xaw_TIM-421" source="8WxmeXJwVNpy9xaw_TIM-301" target="8WxmeXJwVNpy9xaw_TIM-380" edge="1">
          <mxGeometry relative="1" as="geometry" />
        </mxCell>
        <mxCell id="8WxmeXJwVNpy9xaw_TIM-382" value="" style="group" parent="8WxmeXJwVNpy9xaw_TIM-421" connectable="0" vertex="1">
          <mxGeometry x="1212.2276181850054" y="1030.0013483146067" width="163.57395196634138" height="88.87640449438203" as="geometry" />
        </mxCell>
        <mxCell id="8WxmeXJwVNpy9xaw_TIM-383" value="&lt;div&gt;«Artifact»&lt;/div&gt;&lt;b&gt;*.blade.php&lt;/b&gt;" style="html=1;dropTarget=0;whiteSpace=wrap;" parent="8WxmeXJwVNpy9xaw_TIM-382" vertex="1">
          <mxGeometry x="2.1009174311926606" width="163.57395196634138" height="88.87640449438203" as="geometry" />
        </mxCell>
        <mxCell id="8WxmeXJwVNpy9xaw_TIM-384" value="" style="shape=note;whiteSpace=wrap;html=1;backgroundOutline=1;darkOpacity=0.05;size=4;" parent="8WxmeXJwVNpy9xaw_TIM-382" vertex="1">
          <mxGeometry x="145.3990684145257" y="9.875156054931335" width="11.813674308680215" height="19.75031210986267" as="geometry" />
        </mxCell>
        <mxCell id="8WxmeXJwVNpy9xaw_TIM-303" value="«Container»&lt;br&gt;ForgotPasswordPage" style="html=1;dropTarget=0;whiteSpace=wrap;" parent="8WxmeXJwVNpy9xaw_TIM-421" vertex="1">
          <mxGeometry x="1197.5188768209707" y="890.00158511538" width="169.81300765499915" height="88.87640449438203" as="geometry" />
        </mxCell>
        <mxCell id="8WxmeXJwVNpy9xaw_TIM-304" value="" style="shape=module;jettyWidth=8;jettyHeight=4;" parent="8WxmeXJwVNpy9xaw_TIM-303" vertex="1">
          <mxGeometry x="1" width="20" height="20" relative="1" as="geometry">
            <mxPoint x="-27" y="7" as="offset" />
          </mxGeometry>
        </mxCell>
        <mxCell id="8WxmeXJwVNpy9xaw_TIM-342" style="edgeStyle=orthogonalEdgeStyle;shape=connector;rounded=0;orthogonalLoop=1;jettySize=auto;html=1;entryX=0.5;entryY=0;entryDx=0;entryDy=0;strokeColor=default;align=center;verticalAlign=middle;fontFamily=Helvetica;fontSize=11;fontColor=default;labelBackgroundColor=default;endArrow=none;endFill=0;" parent="8WxmeXJwVNpy9xaw_TIM-421" source="8WxmeXJwVNpy9xaw_TIM-236" target="8WxmeXJwVNpy9xaw_TIM-303" edge="1">
          <mxGeometry relative="1" as="geometry" />
        </mxCell>
        <mxCell id="8WxmeXJwVNpy9xaw_TIM-388" style="edgeStyle=orthogonalEdgeStyle;shape=connector;rounded=0;orthogonalLoop=1;jettySize=auto;html=1;entryX=0.5;entryY=0;entryDx=0;entryDy=0;strokeColor=default;align=center;verticalAlign=middle;fontFamily=Helvetica;fontSize=11;fontColor=default;labelBackgroundColor=default;endArrow=none;endFill=0;" parent="8WxmeXJwVNpy9xaw_TIM-421" edge="1">
          <mxGeometry relative="1" as="geometry">
            <mxPoint x="1282.6731192660552" y="978.8779896097617" as="sourcePoint" />
            <mxPoint x="1281.629685911296" y="1030.0013483146067" as="targetPoint" />
          </mxGeometry>
        </mxCell>
        <mxCell id="8WxmeXJwVNpy9xaw_TIM-305" value="«Container»&lt;br&gt;FormInput" style="html=1;dropTarget=0;whiteSpace=wrap;" parent="8WxmeXJwVNpy9xaw_TIM-421" vertex="1">
          <mxGeometry x="1397.1060327842736" y="890.00158511538" width="169.81300765499915" height="88.87640449438203" as="geometry" />
        </mxCell>
        <mxCell id="8WxmeXJwVNpy9xaw_TIM-306" value="" style="shape=module;jettyWidth=8;jettyHeight=4;" parent="8WxmeXJwVNpy9xaw_TIM-305" vertex="1">
          <mxGeometry x="1" width="20" height="20" relative="1" as="geometry">
            <mxPoint x="-27" y="7" as="offset" />
          </mxGeometry>
        </mxCell>
        <mxCell id="8WxmeXJwVNpy9xaw_TIM-343" style="edgeStyle=orthogonalEdgeStyle;shape=connector;rounded=0;orthogonalLoop=1;jettySize=auto;html=1;entryX=0.5;entryY=0;entryDx=0;entryDy=0;strokeColor=default;align=center;verticalAlign=middle;fontFamily=Helvetica;fontSize=11;fontColor=default;labelBackgroundColor=default;endArrow=none;endFill=0;" parent="8WxmeXJwVNpy9xaw_TIM-421" source="8WxmeXJwVNpy9xaw_TIM-236" target="8WxmeXJwVNpy9xaw_TIM-305" edge="1">
          <mxGeometry relative="1" as="geometry" />
        </mxCell>
        <mxCell id="8WxmeXJwVNpy9xaw_TIM-389" value="" style="group" parent="8WxmeXJwVNpy9xaw_TIM-421" connectable="0" vertex="1">
          <mxGeometry x="1397.1083521299597" y="1030.0013483146067" width="163.57395196634138" height="88.87640449438203" as="geometry" />
        </mxCell>
        <mxCell id="8WxmeXJwVNpy9xaw_TIM-390" value="&lt;div&gt;«Artifact»&lt;/div&gt;&lt;b&gt;*.php&lt;/b&gt;" style="html=1;dropTarget=0;whiteSpace=wrap;" parent="8WxmeXJwVNpy9xaw_TIM-389" vertex="1">
          <mxGeometry x="2.1009174311926606" width="163.57395196634138" height="88.87640449438203" as="geometry" />
        </mxCell>
        <mxCell id="8WxmeXJwVNpy9xaw_TIM-391" value="" style="shape=note;whiteSpace=wrap;html=1;backgroundOutline=1;darkOpacity=0.05;size=4;" parent="8WxmeXJwVNpy9xaw_TIM-389" vertex="1">
          <mxGeometry x="145.3990684145257" y="9.875156054931335" width="11.813674308680215" height="19.75031210986267" as="geometry" />
        </mxCell>
        <mxCell id="8WxmeXJwVNpy9xaw_TIM-394" style="edgeStyle=orthogonalEdgeStyle;shape=connector;rounded=0;orthogonalLoop=1;jettySize=auto;html=1;entryX=0.5;entryY=0;entryDx=0;entryDy=0;strokeColor=default;align=center;verticalAlign=middle;fontFamily=Helvetica;fontSize=11;fontColor=default;labelBackgroundColor=default;endArrow=none;endFill=0;" parent="8WxmeXJwVNpy9xaw_TIM-421" source="8WxmeXJwVNpy9xaw_TIM-305" target="8WxmeXJwVNpy9xaw_TIM-390" edge="1">
          <mxGeometry relative="1" as="geometry" />
        </mxCell>
        <mxCell id="8WxmeXJwVNpy9xaw_TIM-415" value="" style="group" parent="8WxmeXJwVNpy9xaw_TIM-421" connectable="0" vertex="1">
          <mxGeometry x="1582.0521135978488" y="1030.0013483146067" width="163.57395196634138" height="88.87640449438203" as="geometry" />
        </mxCell>
        <mxCell id="8WxmeXJwVNpy9xaw_TIM-416" value="&lt;div&gt;«Artifact»&lt;/div&gt;&lt;b&gt;*.php&lt;/b&gt;" style="html=1;dropTarget=0;whiteSpace=wrap;" parent="8WxmeXJwVNpy9xaw_TIM-415" vertex="1">
          <mxGeometry x="2.1009174311926606" width="163.57395196634138" height="88.87640449438203" as="geometry" />
        </mxCell>
        <mxCell id="8WxmeXJwVNpy9xaw_TIM-417" value="" style="shape=note;whiteSpace=wrap;html=1;backgroundOutline=1;darkOpacity=0.05;size=4;" parent="8WxmeXJwVNpy9xaw_TIM-415" vertex="1">
          <mxGeometry x="145.3990684145257" y="9.875156054931335" width="11.813674308680215" height="19.75031210986267" as="geometry" />
        </mxCell>
        <mxCell id="8WxmeXJwVNpy9xaw_TIM-413" value="«Container»&lt;br&gt;AppointmentsList" style="html=1;dropTarget=0;whiteSpace=wrap;" parent="8WxmeXJwVNpy9xaw_TIM-421" vertex="1">
          <mxGeometry x="1582.049794252163" y="890.00158511538" width="169.81300765499915" height="88.87640449438203" as="geometry" />
        </mxCell>
        <mxCell id="8WxmeXJwVNpy9xaw_TIM-414" value="" style="shape=module;jettyWidth=8;jettyHeight=4;" parent="8WxmeXJwVNpy9xaw_TIM-413" vertex="1">
          <mxGeometry x="1" width="20" height="20" relative="1" as="geometry">
            <mxPoint x="-27" y="7" as="offset" />
          </mxGeometry>
        </mxCell>
        <mxCell id="8WxmeXJwVNpy9xaw_TIM-420" style="edgeStyle=orthogonalEdgeStyle;shape=connector;rounded=0;orthogonalLoop=1;jettySize=auto;html=1;entryX=0.5;entryY=0;entryDx=0;entryDy=0;strokeColor=default;align=center;verticalAlign=middle;fontFamily=Helvetica;fontSize=11;fontColor=default;labelBackgroundColor=default;endArrow=none;endFill=0;" parent="8WxmeXJwVNpy9xaw_TIM-421" source="8WxmeXJwVNpy9xaw_TIM-236" target="8WxmeXJwVNpy9xaw_TIM-413" edge="1">
          <mxGeometry relative="1" as="geometry" />
        </mxCell>
        <mxCell id="8WxmeXJwVNpy9xaw_TIM-419" style="edgeStyle=orthogonalEdgeStyle;shape=connector;rounded=0;orthogonalLoop=1;jettySize=auto;html=1;entryX=0.5;entryY=0;entryDx=0;entryDy=0;strokeColor=default;align=center;verticalAlign=middle;fontFamily=Helvetica;fontSize=11;fontColor=default;labelBackgroundColor=default;endArrow=none;endFill=0;" parent="8WxmeXJwVNpy9xaw_TIM-421" source="8WxmeXJwVNpy9xaw_TIM-413" target="8WxmeXJwVNpy9xaw_TIM-416" edge="1">
          <mxGeometry relative="1" as="geometry" />
        </mxCell>
        <mxCell id="8WxmeXJwVNpy9xaw_TIM-247" value="" style="group" parent="8WxmeXJwVNpy9xaw_TIM-421" connectable="0" vertex="1">
          <mxGeometry x="1775.2804481972773" y="890.0049438202246" width="163.57395196634138" height="80.71247191011237" as="geometry" />
        </mxCell>
        <mxCell id="8WxmeXJwVNpy9xaw_TIM-248" value="&lt;div&gt;«Artifact»&lt;/div&gt;&lt;div&gt;TechnicianList&lt;br&gt;&lt;/div&gt;" style="html=1;dropTarget=0;whiteSpace=wrap;" parent="8WxmeXJwVNpy9xaw_TIM-247" vertex="1">
          <mxGeometry width="163.57395196634138" height="80.71247191011237" as="geometry" />
        </mxCell>
        <mxCell id="8WxmeXJwVNpy9xaw_TIM-249" value="" style="shape=note;whiteSpace=wrap;html=1;backgroundOutline=1;darkOpacity=0.05;size=4;" parent="8WxmeXJwVNpy9xaw_TIM-247" vertex="1">
          <mxGeometry x="145.3990684145257" y="8.968052434456927" width="11.813674308680215" height="17.936104868913855" as="geometry" />
        </mxCell>
        <mxCell id="8WxmeXJwVNpy9xaw_TIM-338" style="edgeStyle=orthogonalEdgeStyle;shape=connector;rounded=0;orthogonalLoop=1;jettySize=auto;html=1;entryX=0.5;entryY=0;entryDx=0;entryDy=0;strokeColor=default;align=center;verticalAlign=middle;fontFamily=Helvetica;fontSize=11;fontColor=default;labelBackgroundColor=default;endArrow=none;endFill=0;" parent="8WxmeXJwVNpy9xaw_TIM-421" source="8WxmeXJwVNpy9xaw_TIM-236" target="8WxmeXJwVNpy9xaw_TIM-248" edge="1">
          <mxGeometry relative="1" as="geometry" />
        </mxCell>
        <mxCell id="8WxmeXJwVNpy9xaw_TIM-264" value="" style="group" parent="8WxmeXJwVNpy9xaw_TIM-421" connectable="0" vertex="1">
          <mxGeometry x="595.6608750657397" y="440.00134831460684" width="163.57395196634138" height="88.87640449438203" as="geometry" />
        </mxCell>
        <mxCell id="8WxmeXJwVNpy9xaw_TIM-265" value="&lt;div&gt;«Artifact»&lt;/div&gt;&lt;b&gt;page.php&lt;/b&gt;" style="html=1;dropTarget=0;whiteSpace=wrap;" parent="8WxmeXJwVNpy9xaw_TIM-264" vertex="1">
          <mxGeometry width="163.57395196634138" height="88.87640449438203" as="geometry" />
        </mxCell>
        <mxCell id="8WxmeXJwVNpy9xaw_TIM-266" value="" style="shape=note;whiteSpace=wrap;html=1;backgroundOutline=1;darkOpacity=0.05;size=4;" parent="8WxmeXJwVNpy9xaw_TIM-264" vertex="1">
          <mxGeometry x="145.3990684145257" y="9.875156054931335" width="11.813674308680215" height="19.75031210986267" as="geometry" />
        </mxCell>
        <mxCell id="8WxmeXJwVNpy9xaw_TIM-262" value="&lt;div&gt;«Container»&lt;/div&gt;register" style="html=1;dropTarget=0;whiteSpace=wrap;" parent="8WxmeXJwVNpy9xaw_TIM-421" vertex="1">
          <mxGeometry x="592.5665047040259" y="289.99516853932585" width="169.76269268976807" height="88.87640449438203" as="geometry" />
        </mxCell>
        <mxCell id="8WxmeXJwVNpy9xaw_TIM-263" value="" style="shape=module;jettyWidth=8;jettyHeight=4;" parent="8WxmeXJwVNpy9xaw_TIM-262" vertex="1">
          <mxGeometry x="1" width="20" height="20" relative="1" as="geometry">
            <mxPoint x="-27" y="7" as="offset" />
          </mxGeometry>
        </mxCell>
        <mxCell id="8WxmeXJwVNpy9xaw_TIM-321" style="edgeStyle=orthogonalEdgeStyle;shape=connector;rounded=0;orthogonalLoop=1;jettySize=auto;html=1;entryX=0.5;entryY=0;entryDx=0;entryDy=0;strokeColor=default;align=center;verticalAlign=middle;fontFamily=Helvetica;fontSize=11;fontColor=default;labelBackgroundColor=default;endArrow=none;endFill=0;" parent="8WxmeXJwVNpy9xaw_TIM-421" source="8WxmeXJwVNpy9xaw_TIM-262" target="8WxmeXJwVNpy9xaw_TIM-265" edge="1">
          <mxGeometry relative="1" as="geometry" />
        </mxCell>
        <mxCell id="8WxmeXJwVNpy9xaw_TIM-258" value="«Container»&lt;br&gt;&lt;b&gt;(auth)&lt;/b&gt;" style="html=1;dropTarget=0;whiteSpace=wrap;" parent="8WxmeXJwVNpy9xaw_TIM-421" vertex="1">
          <mxGeometry x="703.8060681937704" y="99.99573033707875" width="169.76269268976807" height="88.87640449438203" as="geometry" />
        </mxCell>
        <mxCell id="8WxmeXJwVNpy9xaw_TIM-259" value="" style="shape=module;jettyWidth=8;jettyHeight=4;" parent="8WxmeXJwVNpy9xaw_TIM-258" vertex="1">
          <mxGeometry x="1" width="20" height="20" relative="1" as="geometry">
            <mxPoint x="-27" y="7" as="offset" />
          </mxGeometry>
        </mxCell>
        <mxCell id="8WxmeXJwVNpy9xaw_TIM-319" style="edgeStyle=orthogonalEdgeStyle;rounded=0;orthogonalLoop=1;jettySize=auto;html=1;entryX=0.5;entryY=0;entryDx=0;entryDy=0;endArrow=none;endFill=0;" parent="8WxmeXJwVNpy9xaw_TIM-421" source="8WxmeXJwVNpy9xaw_TIM-258" target="8WxmeXJwVNpy9xaw_TIM-262" edge="1">
          <mxGeometry relative="1" as="geometry" />
        </mxCell>
        <mxCell id="8WxmeXJwVNpy9xaw_TIM-260" value="&lt;div&gt;«Container»&lt;/div&gt;login" style="html=1;dropTarget=0;whiteSpace=wrap;" parent="8WxmeXJwVNpy9xaw_TIM-421" vertex="1">
          <mxGeometry x="821.8841179220477" y="289.99516853932585" width="169.76269268976807" height="88.87640449438203" as="geometry" />
        </mxCell>
        <mxCell id="8WxmeXJwVNpy9xaw_TIM-261" value="" style="shape=module;jettyWidth=8;jettyHeight=4;" parent="8WxmeXJwVNpy9xaw_TIM-260" vertex="1">
          <mxGeometry x="1" width="20" height="20" relative="1" as="geometry">
            <mxPoint x="-27" y="7" as="offset" />
          </mxGeometry>
        </mxCell>
        <mxCell id="8WxmeXJwVNpy9xaw_TIM-333" style="edgeStyle=orthogonalEdgeStyle;shape=connector;rounded=0;orthogonalLoop=1;jettySize=auto;html=1;entryX=0.5;entryY=0;entryDx=0;entryDy=0;strokeColor=default;align=center;verticalAlign=middle;fontFamily=Helvetica;fontSize=11;fontColor=default;labelBackgroundColor=default;endArrow=none;endFill=0;" parent="8WxmeXJwVNpy9xaw_TIM-421" source="8WxmeXJwVNpy9xaw_TIM-258" target="8WxmeXJwVNpy9xaw_TIM-260" edge="1">
          <mxGeometry relative="1" as="geometry" />
        </mxCell>
        <mxCell id="8WxmeXJwVNpy9xaw_TIM-267" value="" style="group" parent="8WxmeXJwVNpy9xaw_TIM-421" connectable="0" vertex="1">
          <mxGeometry x="819.3585341553209" y="500.00134831460684" width="163.57395196634138" height="88.87640449438203" as="geometry" />
        </mxCell>
        <mxCell id="8WxmeXJwVNpy9xaw_TIM-268" value="&lt;div&gt;«Artifact»&lt;/div&gt;&lt;b&gt;page.php&lt;/b&gt;" style="html=1;dropTarget=0;whiteSpace=wrap;" parent="8WxmeXJwVNpy9xaw_TIM-267" vertex="1">
          <mxGeometry x="5.619954128440366" y="-61.71" width="163.57395196634138" height="88.87640449438203" as="geometry" />
        </mxCell>
        <mxCell id="8WxmeXJwVNpy9xaw_TIM-269" value="" style="shape=note;whiteSpace=wrap;html=1;backgroundOutline=1;darkOpacity=0.05;size=4;" parent="8WxmeXJwVNpy9xaw_TIM-267" vertex="1">
          <mxGeometry x="151.01902254296604" y="-51.83484394506867" width="11.813674308680215" height="19.75031210986267" as="geometry" />
        </mxCell>
        <mxCell id="8WxmeXJwVNpy9xaw_TIM-322" style="edgeStyle=orthogonalEdgeStyle;shape=connector;rounded=0;orthogonalLoop=1;jettySize=auto;html=1;entryX=0.5;entryY=0;entryDx=0;entryDy=0;strokeColor=default;align=center;verticalAlign=middle;fontFamily=Helvetica;fontSize=11;fontColor=default;labelBackgroundColor=default;endArrow=none;endFill=0;" parent="8WxmeXJwVNpy9xaw_TIM-421" source="8WxmeXJwVNpy9xaw_TIM-260" target="8WxmeXJwVNpy9xaw_TIM-268" edge="1">
          <mxGeometry relative="1" as="geometry" />
        </mxCell>
        <mxCell id="tiNQSC6HaKzDwvJY5_fg-16" value="" style="group" parent="8WxmeXJwVNpy9xaw_TIM-421" connectable="0" vertex="1">
          <mxGeometry x="1775.2834306710197" y="1030.0013483146067" width="163.57395196634138" height="88.87640449438203" as="geometry" />
        </mxCell>
        <mxCell id="tiNQSC6HaKzDwvJY5_fg-17" value="&lt;div&gt;«Artifact»&lt;/div&gt;&lt;b&gt;*.php&lt;/b&gt;" style="html=1;dropTarget=0;whiteSpace=wrap;" parent="tiNQSC6HaKzDwvJY5_fg-16" vertex="1">
          <mxGeometry x="2.1009174311926606" width="163.57395196634138" height="88.87640449438203" as="geometry" />
        </mxCell>
        <mxCell id="tiNQSC6HaKzDwvJY5_fg-18" value="" style="shape=note;whiteSpace=wrap;html=1;backgroundOutline=1;darkOpacity=0.05;size=4;" parent="tiNQSC6HaKzDwvJY5_fg-16" vertex="1">
          <mxGeometry x="145.3990684145257" y="9.875156054931335" width="11.813674308680215" height="19.75031210986267" as="geometry" />
        </mxCell>
        <mxCell id="tiNQSC6HaKzDwvJY5_fg-19" value="" style="group" parent="8WxmeXJwVNpy9xaw_TIM-421" connectable="0" vertex="1">
          <mxGeometry x="1966.0542042948384" y="890.0049438202246" width="163.57395196634138" height="80.71247191011237" as="geometry" />
        </mxCell>
        <mxCell id="tiNQSC6HaKzDwvJY5_fg-20" value="&lt;div&gt;«Artifact»&lt;/div&gt;&lt;div&gt;Modal.vue&amp;nbsp;&lt;br&gt;&lt;/div&gt;" style="html=1;dropTarget=0;whiteSpace=wrap;" parent="tiNQSC6HaKzDwvJY5_fg-19" vertex="1">
          <mxGeometry width="163.57395196634138" height="80.71247191011237" as="geometry" />
        </mxCell>
        <mxCell id="tiNQSC6HaKzDwvJY5_fg-21" value="" style="shape=note;whiteSpace=wrap;html=1;backgroundOutline=1;darkOpacity=0.05;size=4;" parent="tiNQSC6HaKzDwvJY5_fg-19" vertex="1">
          <mxGeometry x="145.3990684145257" y="8.968052434456927" width="11.813674308680215" height="17.936104868913855" as="geometry" />
        </mxCell>
        <mxCell id="tiNQSC6HaKzDwvJY5_fg-22" value="" style="group" parent="8WxmeXJwVNpy9xaw_TIM-421" connectable="0" vertex="1">
          <mxGeometry x="1966.0571867685803" y="1030.0013483146067" width="163.57395196634138" height="88.87640449438203" as="geometry" />
        </mxCell>
        <mxCell id="tiNQSC6HaKzDwvJY5_fg-23" value="&lt;div&gt;«Artifact»&lt;/div&gt;&lt;b&gt;*.php&lt;/b&gt;" style="html=1;dropTarget=0;whiteSpace=wrap;" parent="tiNQSC6HaKzDwvJY5_fg-22" vertex="1">
          <mxGeometry x="2.1009174311926606" width="163.57395196634138" height="88.87640449438203" as="geometry" />
        </mxCell>
        <mxCell id="tiNQSC6HaKzDwvJY5_fg-24" value="" style="shape=note;whiteSpace=wrap;html=1;backgroundOutline=1;darkOpacity=0.05;size=4;" parent="tiNQSC6HaKzDwvJY5_fg-22" vertex="1">
          <mxGeometry x="145.3990684145257" y="9.875156054931335" width="11.813674308680215" height="19.75031210986267" as="geometry" />
        </mxCell>
        <mxCell id="tiNQSC6HaKzDwvJY5_fg-26" style="edgeStyle=orthogonalEdgeStyle;shape=connector;rounded=0;orthogonalLoop=1;jettySize=auto;html=1;entryX=0.5;entryY=0;entryDx=0;entryDy=0;strokeColor=default;align=center;verticalAlign=middle;fontFamily=Helvetica;fontSize=11;fontColor=default;labelBackgroundColor=default;endArrow=none;endFill=0;" parent="8WxmeXJwVNpy9xaw_TIM-421" target="tiNQSC6HaKzDwvJY5_fg-17" edge="1">
          <mxGeometry relative="1" as="geometry">
            <mxPoint x="1858.2065365853662" y="970.72" as="sourcePoint" />
            <mxPoint x="1857.0894634146343" y="1021.72" as="targetPoint" />
          </mxGeometry>
        </mxCell>
        <mxCell id="tiNQSC6HaKzDwvJY5_fg-27" style="edgeStyle=orthogonalEdgeStyle;shape=connector;rounded=0;orthogonalLoop=1;jettySize=auto;html=1;entryX=0.5;entryY=0;entryDx=0;entryDy=0;strokeColor=default;align=center;verticalAlign=middle;fontFamily=Helvetica;fontSize=11;fontColor=default;labelBackgroundColor=default;endArrow=none;endFill=0;" parent="8WxmeXJwVNpy9xaw_TIM-421" edge="1">
          <mxGeometry relative="1" as="geometry">
            <mxPoint x="2055.4146341463415" y="970.72" as="sourcePoint" />
            <mxPoint x="2056.0178536585368" y="1030" as="targetPoint" />
          </mxGeometry>
        </mxCell>
        <mxCell id="8WxmeXJwVNpy9xaw_TIM-365" style="edgeStyle=orthogonalEdgeStyle;shape=connector;rounded=0;orthogonalLoop=1;jettySize=auto;html=1;strokeColor=default;align=center;verticalAlign=middle;fontFamily=Helvetica;fontSize=11;fontColor=default;labelBackgroundColor=default;endArrow=halfCircle;endFill=0;" parent="8WxmeXJwVNpy9xaw_TIM-421" edge="1">
          <mxGeometry relative="1" as="geometry">
            <mxPoint x="1560" y="670" as="targetPoint" />
            <mxPoint x="1478.27" y="795" as="sourcePoint" />
          </mxGeometry>
        </mxCell>
        <mxCell id="8WxmeXJwVNpy9xaw_TIM-368" value="&lt;div&gt;Interfaz que recibe solicitudes de rendirizado&lt;/div&gt;&lt;div&gt;&amp;nbsp;de componentes para las paginas&lt;/div&gt;" style="text;html=1;align=center;verticalAlign=middle;resizable=0;points=[];autosize=1;strokeColor=none;fillColor=none;fontFamily=Helvetica;fontSize=11;fontColor=default;labelBackgroundColor=default;" parent="8WxmeXJwVNpy9xaw_TIM-421" vertex="1">
          <mxGeometry x="1580" y="640" width="240" height="40" as="geometry" />
        </mxCell>
        <mxCell id="tiNQSC6HaKzDwvJY5_fg-32" style="edgeStyle=orthogonalEdgeStyle;shape=connector;rounded=0;orthogonalLoop=1;jettySize=auto;html=1;strokeColor=default;align=center;verticalAlign=middle;fontFamily=Helvetica;fontSize=11;fontColor=default;labelBackgroundColor=default;endArrow=halfCircle;endFill=0;exitX=0.5;exitY=0;exitDx=0;exitDy=0;" parent="8WxmeXJwVNpy9xaw_TIM-421" source="8WxmeXJwVNpy9xaw_TIM-232" edge="1">
          <mxGeometry relative="1" as="geometry">
            <mxPoint x="759.23" y="589.88" as="targetPoint" />
            <mxPoint x="570" y="590" as="sourcePoint" />
            <Array as="points">
              <mxPoint x="279" y="589" />
              <mxPoint x="739" y="589" />
              <mxPoint x="759" y="590" />
            </Array>
          </mxGeometry>
        </mxCell>
        <mxCell id="tiNQSC6HaKzDwvJY5_fg-33" style="edgeStyle=orthogonalEdgeStyle;shape=connector;rounded=0;orthogonalLoop=1;jettySize=auto;html=1;entryX=0.5;entryY=0;entryDx=0;entryDy=0;strokeColor=default;align=center;verticalAlign=middle;fontFamily=Helvetica;fontSize=11;fontColor=default;labelBackgroundColor=default;endArrow=none;endFill=0;" parent="8WxmeXJwVNpy9xaw_TIM-421" edge="1">
          <mxGeometry relative="1" as="geometry">
            <mxPoint x="1566.92" y="795" as="sourcePoint" />
            <mxPoint x="2056.92" y="890" as="targetPoint" />
          </mxGeometry>
        </mxCell>
        <mxCell id="8WxmeXJwVNpy9xaw_TIM-347" style="edgeStyle=orthogonalEdgeStyle;shape=connector;rounded=0;orthogonalLoop=1;jettySize=auto;html=1;entryX=0;entryY=0.5;entryDx=0;entryDy=0;strokeColor=default;align=center;verticalAlign=middle;fontFamily=Helvetica;fontSize=11;fontColor=default;labelBackgroundColor=default;endArrow=none;endFill=0;" parent="1" source="8WxmeXJwVNpy9xaw_TIM-256" target="8WxmeXJwVNpy9xaw_TIM-279" edge="1">
          <mxGeometry relative="1" as="geometry" />
        </mxCell>
        <mxCell id="8WxmeXJwVNpy9xaw_TIM-356" style="edgeStyle=orthogonalEdgeStyle;shape=connector;rounded=0;orthogonalLoop=1;jettySize=auto;html=1;strokeColor=default;align=center;verticalAlign=middle;fontFamily=Helvetica;fontSize=11;fontColor=default;labelBackgroundColor=default;endArrow=none;endFill=0;" parent="1" source="8WxmeXJwVNpy9xaw_TIM-256" edge="1">
          <mxGeometry relative="1" as="geometry">
            <mxPoint x="3636.513503184713" y="338.29" as="targetPoint" />
          </mxGeometry>
        </mxCell>
        <mxCell id="8WxmeXJwVNpy9xaw_TIM-357" style="edgeStyle=orthogonalEdgeStyle;shape=connector;rounded=0;orthogonalLoop=1;jettySize=auto;html=1;entryX=0.5;entryY=0;entryDx=0;entryDy=0;strokeColor=default;align=center;verticalAlign=middle;fontFamily=Helvetica;fontSize=11;fontColor=default;labelBackgroundColor=default;endArrow=none;endFill=0;" parent="1" source="8WxmeXJwVNpy9xaw_TIM-256" target="8WxmeXJwVNpy9xaw_TIM-270" edge="1">
          <mxGeometry relative="1" as="geometry" />
        </mxCell>
        <mxCell id="8WxmeXJwVNpy9xaw_TIM-358" style="edgeStyle=orthogonalEdgeStyle;shape=connector;rounded=0;orthogonalLoop=1;jettySize=auto;html=1;entryX=0.5;entryY=0;entryDx=0;entryDy=0;strokeColor=default;align=center;verticalAlign=middle;fontFamily=Helvetica;fontSize=11;fontColor=default;labelBackgroundColor=default;endArrow=none;endFill=0;" parent="1" source="8WxmeXJwVNpy9xaw_TIM-256" target="8WxmeXJwVNpy9xaw_TIM-272" edge="1">
          <mxGeometry relative="1" as="geometry" />
        </mxCell>
        <mxCell id="8WxmeXJwVNpy9xaw_TIM-367" style="edgeStyle=orthogonalEdgeStyle;shape=connector;rounded=0;orthogonalLoop=1;jettySize=auto;html=1;strokeColor=default;align=center;verticalAlign=middle;fontFamily=Helvetica;fontSize=11;fontColor=default;labelBackgroundColor=default;endArrow=none;endFill=0;dashed=1;" parent="1" edge="1">
          <mxGeometry relative="1" as="geometry">
            <mxPoint x="3191" y="240" as="targetPoint" />
            <mxPoint x="3581" y="188.2857303370788" as="sourcePoint" />
            <Array as="points">
              <mxPoint x="3581" y="160" />
              <mxPoint x="3191" y="160" />
              <mxPoint x="3191" y="233" />
            </Array>
          </mxGeometry>
        </mxCell>
        <mxCell id="8WxmeXJwVNpy9xaw_TIM-256" value="«Container»&lt;br&gt;&lt;b&gt;(home)&lt;/b&gt;" style="html=1;dropTarget=0;whiteSpace=wrap;" parent="1" vertex="1">
          <mxGeometry x="3555.709426751592" y="188.28573033707872" width="161.60815286624208" height="88.87640449438203" as="geometry" />
        </mxCell>
        <mxCell id="8WxmeXJwVNpy9xaw_TIM-257" value="" style="shape=module;jettyWidth=8;jettyHeight=4;" parent="8WxmeXJwVNpy9xaw_TIM-256" vertex="1">
          <mxGeometry x="1" width="20" height="20" relative="1" as="geometry">
            <mxPoint x="-27" y="7" as="offset" />
          </mxGeometry>
        </mxCell>
        <mxCell id="8WxmeXJwVNpy9xaw_TIM-366" style="edgeStyle=orthogonalEdgeStyle;shape=connector;rounded=0;orthogonalLoop=1;jettySize=auto;html=1;strokeColor=default;align=center;verticalAlign=middle;fontFamily=Helvetica;fontSize=11;fontColor=default;labelBackgroundColor=default;endArrow=circle;endFill=0;dashed=1;exitX=0.99;exitY=0.592;exitDx=0;exitDy=0;exitPerimeter=0;" parent="1" source="8WxmeXJwVNpy9xaw_TIM-258" edge="1">
          <mxGeometry relative="1" as="geometry">
            <mxPoint x="3380" y="770" as="targetPoint" />
            <mxPoint x="3050.956942675159" y="236.75555555555547" as="sourcePoint" />
            <Array as="points">
              <mxPoint x="2692" y="240" />
              <mxPoint x="2985" y="240" />
              <mxPoint x="2985" y="237" />
              <mxPoint x="3191" y="237" />
              <mxPoint x="3191" y="690" />
              <mxPoint x="3380" y="690" />
            </Array>
          </mxGeometry>
        </mxCell>
        <mxCell id="8WxmeXJwVNpy9xaw_TIM-323" style="edgeStyle=orthogonalEdgeStyle;shape=connector;rounded=0;orthogonalLoop=1;jettySize=auto;html=1;entryX=0.5;entryY=0;entryDx=0;entryDy=0;strokeColor=default;align=center;verticalAlign=middle;fontFamily=Helvetica;fontSize=11;fontColor=default;labelBackgroundColor=default;endArrow=none;endFill=0;" parent="1" source="8WxmeXJwVNpy9xaw_TIM-270" target="8WxmeXJwVNpy9xaw_TIM-282" edge="1">
          <mxGeometry relative="1" as="geometry" />
        </mxCell>
        <mxCell id="8WxmeXJwVNpy9xaw_TIM-270" value="&lt;div&gt;«Container»&lt;/div&gt;cuenta" style="html=1;dropTarget=0;whiteSpace=wrap;" parent="1" vertex="1">
          <mxGeometry x="3220.000841476441" y="342.7679642382506" width="161.60815286624208" height="88.87640449438203" as="geometry" />
        </mxCell>
        <mxCell id="8WxmeXJwVNpy9xaw_TIM-271" value="" style="shape=module;jettyWidth=8;jettyHeight=4;" parent="8WxmeXJwVNpy9xaw_TIM-270" vertex="1">
          <mxGeometry x="1" width="20" height="20" relative="1" as="geometry">
            <mxPoint x="-27" y="7" as="offset" />
          </mxGeometry>
        </mxCell>
        <mxCell id="8WxmeXJwVNpy9xaw_TIM-324" style="edgeStyle=orthogonalEdgeStyle;shape=connector;rounded=0;orthogonalLoop=1;jettySize=auto;html=1;entryX=0.5;entryY=0;entryDx=0;entryDy=0;strokeColor=default;align=center;verticalAlign=middle;fontFamily=Helvetica;fontSize=11;fontColor=default;labelBackgroundColor=default;endArrow=none;endFill=0;" parent="1" source="8WxmeXJwVNpy9xaw_TIM-272" target="8WxmeXJwVNpy9xaw_TIM-285" edge="1">
          <mxGeometry relative="1" as="geometry" />
        </mxCell>
        <mxCell id="8WxmeXJwVNpy9xaw_TIM-272" value="&lt;div&gt;«Container»&lt;/div&gt;&lt;div&gt;inicio&lt;/div&gt;" style="html=1;dropTarget=0;whiteSpace=wrap;" parent="1" vertex="1">
          <mxGeometry x="3389.7241535783523" y="342.7679642382506" width="161.60815286624208" height="88.87640449438203" as="geometry" />
        </mxCell>
        <mxCell id="8WxmeXJwVNpy9xaw_TIM-273" value="" style="shape=module;jettyWidth=8;jettyHeight=4;" parent="8WxmeXJwVNpy9xaw_TIM-272" vertex="1">
          <mxGeometry x="1" width="20" height="20" relative="1" as="geometry">
            <mxPoint x="-27" y="7" as="offset" />
          </mxGeometry>
        </mxCell>
        <mxCell id="8WxmeXJwVNpy9xaw_TIM-330" style="edgeStyle=orthogonalEdgeStyle;shape=connector;rounded=0;orthogonalLoop=1;jettySize=auto;html=1;entryX=0.5;entryY=0;entryDx=0;entryDy=0;strokeColor=default;align=center;verticalAlign=middle;fontFamily=Helvetica;fontSize=11;fontColor=default;labelBackgroundColor=default;endArrow=none;endFill=0;" parent="1" source="8WxmeXJwVNpy9xaw_TIM-274" target="8WxmeXJwVNpy9xaw_TIM-288" edge="1">
          <mxGeometry relative="1" as="geometry" />
        </mxCell>
        <mxCell id="8WxmeXJwVNpy9xaw_TIM-274" value="&lt;div&gt;«Container»&lt;/div&gt;&lt;div&gt;mi agenda&lt;/div&gt;" style="html=1;dropTarget=0;whiteSpace=wrap;" parent="1" vertex="1">
          <mxGeometry x="3555.7074656802633" y="342.7679642382506" width="161.60815286624208" height="88.87640449438203" as="geometry" />
        </mxCell>
        <mxCell id="8WxmeXJwVNpy9xaw_TIM-275" value="" style="shape=module;jettyWidth=8;jettyHeight=4;" parent="8WxmeXJwVNpy9xaw_TIM-274" vertex="1">
          <mxGeometry x="1" width="20" height="20" relative="1" as="geometry">
            <mxPoint x="-27" y="7" as="offset" />
          </mxGeometry>
        </mxCell>
        <mxCell id="8WxmeXJwVNpy9xaw_TIM-278" value="" style="group" parent="1" connectable="0" vertex="1">
          <mxGeometry x="3824.9982474186027" y="188.28573033707872" width="155.71668789808916" height="88.87640449438203" as="geometry" />
        </mxCell>
        <mxCell id="8WxmeXJwVNpy9xaw_TIM-279" value="&lt;div&gt;«Artifact»&lt;/div&gt;&lt;b&gt;layout.php&lt;/b&gt;" style="html=1;dropTarget=0;whiteSpace=wrap;" parent="8WxmeXJwVNpy9xaw_TIM-278" vertex="1">
          <mxGeometry width="155.71668789808916" height="88.87640449438203" as="geometry" />
        </mxCell>
        <mxCell id="8WxmeXJwVNpy9xaw_TIM-280" value="" style="shape=note;whiteSpace=wrap;html=1;backgroundOutline=1;darkOpacity=0.05;size=4;" parent="8WxmeXJwVNpy9xaw_TIM-278" vertex="1">
          <mxGeometry x="138.4148336871904" y="9.875156054931335" width="11.246205237084222" height="19.75031210986267" as="geometry" />
        </mxCell>
        <mxCell id="8WxmeXJwVNpy9xaw_TIM-281" value="" style="group" parent="1" connectable="0" vertex="1">
          <mxGeometry x="3222.9416323139612" y="488.5776924006281" width="155.71668789808916" height="88.87640449438203" as="geometry" />
        </mxCell>
        <mxCell id="8WxmeXJwVNpy9xaw_TIM-282" value="&lt;div&gt;«Artifact»&lt;/div&gt;&lt;b&gt;page.php&lt;/b&gt;&lt;div&gt;&lt;b&gt;&lt;br&gt;&lt;/b&gt;&lt;/div&gt;" style="html=1;dropTarget=0;whiteSpace=wrap;" parent="8WxmeXJwVNpy9xaw_TIM-281" vertex="1">
          <mxGeometry width="155.71668789808916" height="88.87640449438203" as="geometry" />
        </mxCell>
        <mxCell id="8WxmeXJwVNpy9xaw_TIM-283" value="" style="shape=note;whiteSpace=wrap;html=1;backgroundOutline=1;darkOpacity=0.05;size=4;" parent="8WxmeXJwVNpy9xaw_TIM-281" vertex="1">
          <mxGeometry x="138.4148336871904" y="9.875156054931335" width="11.246205237084222" height="19.75031210986267" as="geometry" />
        </mxCell>
        <mxCell id="8WxmeXJwVNpy9xaw_TIM-284" value="" style="group" parent="1" connectable="0" vertex="1">
          <mxGeometry x="3392.6665391462598" y="488.5776924006281" width="155.71668789808916" height="88.87640449438203" as="geometry" />
        </mxCell>
        <mxCell id="8WxmeXJwVNpy9xaw_TIM-285" value="&lt;div&gt;«Artifact»&lt;/div&gt;&lt;b&gt;page.php&lt;/b&gt;&lt;div&gt;&lt;b&gt;&lt;br&gt;&lt;/b&gt;&lt;/div&gt;" style="html=1;dropTarget=0;whiteSpace=wrap;" parent="8WxmeXJwVNpy9xaw_TIM-284" vertex="1">
          <mxGeometry width="155.71668789808916" height="88.87640449438203" as="geometry" />
        </mxCell>
        <mxCell id="8WxmeXJwVNpy9xaw_TIM-286" value="" style="shape=note;whiteSpace=wrap;html=1;backgroundOutline=1;darkOpacity=0.05;size=4;" parent="8WxmeXJwVNpy9xaw_TIM-284" vertex="1">
          <mxGeometry x="138.4148336871904" y="9.875156054931335" width="11.246205237084222" height="19.75031210986267" as="geometry" />
        </mxCell>
        <mxCell id="8WxmeXJwVNpy9xaw_TIM-287" value="" style="group" parent="1" connectable="0" vertex="1">
          <mxGeometry x="3558.6534956679984" y="488.5776924006281" width="155.71668789808916" height="88.87640449438203" as="geometry" />
        </mxCell>
        <mxCell id="8WxmeXJwVNpy9xaw_TIM-288" value="&lt;div&gt;«Artifact»&lt;/div&gt;&lt;b&gt;page.php&lt;/b&gt;" style="html=1;dropTarget=0;whiteSpace=wrap;" parent="8WxmeXJwVNpy9xaw_TIM-287" vertex="1">
          <mxGeometry width="155.71668789808916" height="88.87640449438203" as="geometry" />
        </mxCell>
        <mxCell id="8WxmeXJwVNpy9xaw_TIM-289" value="" style="shape=note;whiteSpace=wrap;html=1;backgroundOutline=1;darkOpacity=0.05;size=4;" parent="8WxmeXJwVNpy9xaw_TIM-287" vertex="1">
          <mxGeometry x="138.4148336871904" y="9.875156054931335" width="11.246205237084222" height="19.75031210986267" as="geometry" />
        </mxCell>
        <mxCell id="8WxmeXJwVNpy9xaw_TIM-400" style="edgeStyle=orthogonalEdgeStyle;shape=connector;rounded=0;orthogonalLoop=1;jettySize=auto;html=1;strokeColor=default;align=center;verticalAlign=middle;fontFamily=Helvetica;fontSize=11;fontColor=default;labelBackgroundColor=default;endArrow=circle;endFill=0;dashed=1;exitX=0.99;exitY=0.669;exitDx=0;exitDy=0;exitPerimeter=0;" parent="1" source="8WxmeXJwVNpy9xaw_TIM-258" edge="1">
          <mxGeometry relative="1" as="geometry">
            <mxPoint x="2579" y="690" as="targetPoint" />
            <mxPoint x="3047" y="240" as="sourcePoint" />
            <Array as="points">
              <mxPoint x="3190" y="239" />
              <mxPoint x="3190" y="690" />
            </Array>
          </mxGeometry>
        </mxCell>
        <mxCell id="8WxmeXJwVNpy9xaw_TIM-438" style="edgeStyle=orthogonalEdgeStyle;shape=connector;rounded=0;orthogonalLoop=1;jettySize=auto;html=1;strokeColor=default;align=center;verticalAlign=middle;fontFamily=Helvetica;fontSize=11;fontColor=default;labelBackgroundColor=default;endArrow=halfCircle;endFill=0;" parent="1" edge="1">
          <mxGeometry relative="1" as="geometry">
            <mxPoint x="1730" y="560" as="targetPoint" />
            <mxPoint x="1530" y="560" as="sourcePoint" />
            <Array as="points">
              <mxPoint x="1710" y="559" />
              <mxPoint x="1710" y="560" />
              <mxPoint x="1730" y="560" />
            </Array>
          </mxGeometry>
        </mxCell>
        <mxCell id="8WxmeXJwVNpy9xaw_TIM-435" value="Servidor" style="verticalAlign=top;align=left;spacingTop=8;spacingLeft=2;spacingRight=12;shape=cube;size=10;direction=south;fontStyle=4;html=1;whiteSpace=wrap;fontFamily=Helvetica;fontSize=11;fontColor=default;labelBackgroundColor=default;" parent="1" vertex="1">
          <mxGeometry x="1350" y="509.99999999999994" width="180" height="120" as="geometry" />
        </mxCell>
        <mxCell id="8WxmeXJwVNpy9xaw_TIM-444" value="Conexión al servidor" style="text;html=1;align=center;verticalAlign=middle;resizable=0;points=[];autosize=1;strokeColor=none;fillColor=none;fontFamily=Helvetica;fontSize=11;fontColor=default;labelBackgroundColor=default;" parent="1" vertex="1">
          <mxGeometry x="1370" y="450" width="120" height="30" as="geometry" />
        </mxCell>
        <mxCell id="tiNQSC6HaKzDwvJY5_fg-31" value="" style="endArrow=circle;html=1;rounded=0;endFill=0;" parent="1" edge="1">
          <mxGeometry width="50" height="50" relative="1" as="geometry">
            <mxPoint x="1820" y="561" as="sourcePoint" />
            <mxPoint x="1730" y="560" as="targetPoint" />
          </mxGeometry>
        </mxCell>
      </root>
    </mxGraphModel>
  </diagram>
</mxfile>
